<svg xmlns="http://www.w3.org/2000/svg" viewBox="0 0 1080 1080"><defs><style>.cls-1{isolation:isolate;}.cls-2{mix-blend-mode:saturation;}.cls-3,.cls-4{fill:#42b5e8;}.cls-4{mix-blend-mode:multiply;}</style></defs><g class="cls-1"><g id="Layer_1" data-name="Layer 1"><g class="cls-2"><polygon class="cls-3" points="520.64 11.57 25.46 1064 242.47 1064 629.15 242.19 520.64 11.57"/><polygon class="cls-3" points="746.38 491.41 629.15 242.25 520.64 472.86 586.04 611.85 746.38 491.41"/><polygon class="cls-4" points="746.38 491.41 629.15 242.25 520.64 472.86 586.04 611.85 746.38 491.41"/><polygon class="cls-3" points="790.56 611.78 651.8 744.52 810.94 1064 1015.83 1064 790.56 611.78"/><path class="cls-3" d="M656.08,219.48l20.35-51.8L786,409.06l287.84-141.17C987.62,326.57,855.24,410.08,769,468.76Z"/><polygon class="cls-3" points="25.46 1064 1080 281.98 297.98 1064 25.46 1064"/><polygon class="cls-4" points="25.46 1064 1080 281.98 297.98 1064 25.46 1064"/></g></g></g></svg>