<svg xmlns="http://www.w3.org/2000/svg" viewBox="0 0 1080 1080"><defs><style>.cls-1{isolation:isolate;}.cls-2{mix-blend-mode:saturation;}.cls-3,.cls-4{fill:#42b5e8;}.cls-4{mix-blend-mode:multiply;}</style></defs><g class="cls-1"><g id="Layer_1" data-name="Layer 1"><g class="cls-2"><polygon class="cls-3" points="520.64 11.57 25.46 1064 242.47 1064 629.15 242.19 520.64 11.57"/><polygon class="cls-3" points="746.38 491.41 629.15 242.25 520.64 472.86 586.04 611.85 746.38 491.41"/><polygon class="cls-4" points="746.38 491.41 629.15 242.25 520.64 472.86 586.04 611.85 746.38 491.41"/><polygon class="cls-3" points="790.56 611.78 651.8 744.52 810.94 1064 1015.83 1064 790.56 611.78"/><polygon class="cls-4" points="790.56 611.78 651.8 744.52 810.94 1064 1015.83 1064 790.56 611.78"/><path class="cls-3" d="M652.86,219l38.92-101.16L808,356l263.8-100.29C987.24,316.81,857.23,404,772.64,465Z"/><polygon class="cls-3" points="25.46 1064 1080 281.98 297.98 1064 25.46 1064"/><polygon class="cls-4" points="25.46 1064 1080 281.98 297.98 1064 25.46 1064"/></g><polygon class="cls-3" points="661.65 77.48 628.38 168.34 569.59 43.76 569.59 43.76 661.65 77.48"/></g></g></svg>